<?xml version="1.0" standalone="no"?>
<!DOCTYPE svg PUBLIC "-//W3C//DTD SVG 20010904//EN"
 "http://www.w3.org/TR/2001/REC-SVG-20010904/DTD/svg10.dtd">
<svg version="1.0" xmlns="http://www.w3.org/2000/svg"
 width="976.000000pt" height="976.000000pt" viewBox="0 0 976.000000 976.000000"
 preserveAspectRatio="xMidYMid meet">
<metadata>
Created by potrace 1.11, written by Peter Selinger 2001-2013
</metadata>
<g transform="translate(0.000000,976.000000) scale(0.100000,-0.100000)"
fill="#000000" stroke="none">
<path d="M6075 7407 c-110 -37 -191 -105 -234 -196 -54 -117 -25 -271 70 -362
170 -163 426 -149 568 31 52 66 73 133 69 218 -5 122 -82 229 -204 287 -70 33
-202 44 -269 22z"/>
<path d="M9078 7415 c-1 -2 -21 -6 -42 -9 -22 -4 -46 -12 -53 -18 -8 -6 -42
-25 -76 -43 -34 -17 -102 -53 -152 -79 -201 -108 -233 -125 -315 -167 -47 -24
-87 -46 -90 -49 -3 -3 -49 -27 -103 -55 -155 -79 -177 -106 -173 -211 3 -65
26 -119 74 -171 49 -52 134 -78 180 -54 9 5 24 12 32 15 8 4 85 42 170 87 85
44 209 108 275 142 66 33 122 64 123 69 2 4 9 8 16 8 17 0 224 108 265 138 49
36 73 97 67 171 -10 111 -65 190 -149 216 -25 7 -47 12 -49 10z"/>
<path d="M1416 5843 c-1 -1 -29 -5 -61 -9 -76 -8 -212 -47 -292 -84 -64 -30
-185 -107 -191 -122 -2 -4 -8 -8 -13 -8 -30 0 -269 -265 -269 -298 0 -7 -4
-12 -10 -12 -6 0 -10 59 -10 158 0 176 -11 216 -68 264 -88 74 -262 89 -376
32 -34 -16 -73 -46 -90 -67 l-31 -39 -3 -1531 c-2 -1071 0 -1543 8 -1569 14
-48 51 -92 105 -124 43 -25 57 -29 125 -43 88 -17 216 20 287 82 72 64 67 -20
69 1102 1 556 4 1024 8 1040 3 17 8 41 11 54 17 86 69 219 104 267 9 12 23 32
31 44 32 49 117 133 178 176 233 167 524 193 761 67 224 -119 382 -350 418
-613 3 -25 6 -499 7 -1055 1 -934 3 -1012 19 -1042 48 -90 214 -145 357 -119
97 18 167 57 200 113 19 33 20 59 20 1031 1 548 3 1020 5 1047 9 118 64 269
134 370 52 76 179 195 257 241 118 69 266 111 379 105 22 -1 47 -2 55 -2 12 0
64 -10 130 -24 24 -5 94 -32 135 -53 158 -79 300 -232 366 -397 13 -33 24 -63
25 -67 1 -5 2 -9 4 -10 1 -2 3 -10 5 -18 1 -8 8 -42 16 -75 10 -47 13 -277 14
-1070 2 -1134 -4 -1052 78 -1119 85 -69 209 -95 316 -66 66 18 146 73 177 122
l28 43 0 1010 c1 914 -2 1060 -19 1160 -3 17 -7 41 -9 55 -18 139 -135 429
-209 520 -12 15 -31 40 -41 54 -61 85 -151 172 -246 241 -30 22 -57 42 -60 45
-37 39 -303 150 -395 164 -20 4 -40 8 -44 10 -24 15 -249 23 -336 12 -99 -12
-253 -50 -269 -67 -6 -5 -16 -9 -24 -9 -18 0 -176 -80 -180 -91 -2 -5 -9 -9
-14 -9 -18 0 -151 -104 -214 -168 -99 -98 -169 -192 -230 -305 l-31 -59 -43
89 c-40 83 -96 173 -144 232 -88 109 -258 249 -356 293 -117 53 -209 82 -295
92 -22 2 -40 5 -40 6 0 2 -216 5 -219 3z"/>
<path d="M8517 5844 c-1 -1 -33 -5 -72 -8 -38 -3 -83 -8 -99 -11 -76 -15 -163
-38 -193 -50 -18 -8 -33 -12 -33 -9 0 3 -12 -1 -27 -9 -16 -7 -59 -29 -98 -47
-122 -58 -263 -171 -330 -265 -11 -16 -24 -33 -30 -40 -45 -50 -137 -258 -149
-339 -4 -21 -8 -41 -10 -45 -15 -24 -23 -282 -11 -343 20 -110 30 -138 75
-233 104 -216 299 -351 699 -485 102 -34 195 -64 207 -66 55 -10 388 -125 447
-155 36 -17 91 -52 123 -75 32 -24 61 -45 64 -46 20 -9 92 -117 111 -165 29
-75 35 -216 12 -294 -15 -52 -64 -139 -95 -169 -100 -97 -271 -167 -427 -176
-47 -3 -94 -7 -103 -9 -10 -2 -18 0 -18 3 0 4 -44 7 -98 7 -95 0 -194 9 -209
18 -4 3 -25 8 -45 11 -60 9 -248 84 -248 98 0 5 -6 8 -14 8 -7 0 -19 7 -26 15
-6 8 -15 13 -18 12 -7 -2 -39 19 -90 59 -115 90 -191 122 -257 110 -105 -20
-208 -210 -173 -319 29 -92 63 -138 142 -196 162 -118 308 -184 541 -247 32
-9 178 -36 225 -42 74 -9 503 -9 560 1 192 33 374 103 530 206 87 56 128 97
239 237 18 22 74 140 93 194 38 107 48 187 44 355 -3 139 -7 172 -30 249 -57
191 -138 315 -282 436 -71 59 -221 145 -329 188 -104 42 -161 62 -180 67 -21
4 -234 64 -322 91 -29 9 -58 17 -65 18 -55 10 -209 65 -283 102 -136 67 -197
120 -242 212 -25 50 -28 67 -27 147 1 50 4 104 9 120 8 34 44 117 54 125 3 3
19 22 34 42 107 144 306 228 542 230 78 0 208 -13 266 -27 35 -9 73 -18 84
-20 28 -6 194 -75 287 -119 115 -55 199 -55 258 0 27 25 87 119 92 144 2 8 6
18 10 21 5 3 11 32 14 65 9 81 -9 113 -106 195 -29 24 -185 102 -214 106 -11
2 -24 7 -30 12 -9 8 -181 54 -241 65 -89 16 -155 25 -250 32 -83 6 -284 12
-288 8z"/>
<path d="M6059 5781 c-73 -23 -127 -65 -150 -116 -18 -38 -19 -111 -19 -1565
0 -1458 1 -1527 19 -1565 21 -48 69 -90 129 -117 58 -26 76 -30 152 -29 131 0
252 71 287 167 9 25 11 410 11 1551 0 1475 -1 1519 -19 1558 -22 45 -76 88
-141 111 -66 24 -201 27 -269 5z"/>
</g>
</svg>
